<svg width="32" height="32" viewBox="0 0 32 32" fill="none" xmlns="http://www.w3.org/2000/svg">
<g filter="url(#filter0_d_1_1261)">
<path d="M27.2327 21.8602L21.5207 15.9194C22.9894 14.1735 23.794 11.9768 23.794 9.68999C23.794 4.34701 19.447 0 14.1041 0C8.76108 0 4.41406 4.34701 4.41406 9.68999C4.41406 15.033 8.76108 19.38 14.1041 19.38C16.1099 19.38 18.0213 18.775 19.6556 17.6265L25.411 23.6124C25.6516 23.8622 25.9751 24 26.3219 24C26.6501 24 26.9614 23.8749 27.1978 23.6474C27.7 23.1641 27.716 22.3628 27.2327 21.8602ZM14.1041 2.52782C18.0534 2.52782 21.2662 5.74069 21.2662 9.68999C21.2662 13.6393 18.0534 16.8522 14.1041 16.8522C10.1548 16.8522 6.94189 13.6393 6.94189 9.68999C6.94189 5.74069 10.1548 2.52782 14.1041 2.52782Z" fill="#273142" fill-opacity="0.75"/>
</g>
<defs>
<filter id="filter0_d_1_1261" x="0" y="0" width="32" height="32" filterUnits="userSpaceOnUse" color-interpolation-filters="sRGB">
<feFlood flood-opacity="0" result="BackgroundImageFix"/>
<feColorMatrix in="SourceAlpha" type="matrix" values="0 0 0 0 0 0 0 0 0 0 0 0 0 0 0 0 0 0 127 0" result="hardAlpha"/>
<feOffset dy="4"/>
<feGaussianBlur stdDeviation="2"/>
<feComposite in2="hardAlpha" operator="out"/>
<feColorMatrix type="matrix" values="0 0 0 0 0 0 0 0 0 0 0 0 0 0 0 0 0 0 0.25 0"/>
<feBlend mode="normal" in2="BackgroundImageFix" result="effect1_dropShadow_1_1261"/>
<feBlend mode="normal" in="SourceGraphic" in2="effect1_dropShadow_1_1261" result="shape"/>
</filter>
</defs>
</svg>
